<?xml version="1.0" encoding="utf-8"?>
<!-- Generator: Adobe Illustrator 26.0.0, SVG Export Plug-In . SVG Version: 6.00 Build 0)  -->
<svg version="1.1" id="Layer_1" xmlns="http://www.w3.org/2000/svg" xmlns:xlink="http://www.w3.org/1999/xlink" x="0px" y="0px"
	 viewBox="0 0 171.9 35" style="enable-background:new 0 0 171.9 35;" xml:space="preserve">
<style type="text/css">
	.st0{fill:#F1F0F0;}
	.st1{fill:#F1F0F0;fill-opacity:0.75;}
	.st2{fill:#FFFFFF;fill-opacity:0;}
	.st3{enable-background:new    ;}
</style>
<g>
	<g>
		<polygon class="st0" points="31.8,17.5 22.9,33.4 4.1,33.4 8.5,25.9 18.6,26 23.5,17.6 18.6,9.1 13.3,17.4 3.8,17.4 8.5,9.1 
			4.1,1.6 22.9,1.6 		"/>
		<polygon class="st1" points="8.5,25.9 18.6,26 13.4,17.4 3.8,17.4 		"/>
		<polygon class="st2" points="18.6,9.1 23.5,17.6 18.6,26 13.4,17.4 		"/>
	</g>
	<g class="st3">
		<path class="st0" d="M36.1,2.5h6.1v30.3h-6.1V2.5z"/>
		<path class="st0" d="M47.4,2.5h10.6c5.9,0,10.7,4.6,10.7,10.2c0,5.6-4.8,10.2-10.7,10.2h-4.6v9.9h-6.1V2.5z M62.6,12.7
			c0-2.3-2-4.2-4.6-4.2h-4.6V17l4.6,0C60.6,17,62.6,15.1,62.6,12.7z"/>
		<path class="st0" d="M90.4,26.8v6.1H72.1V2.5h6.1v24.3H90.4z"/>
		<path class="st0" d="M91.6,17.7c0-8.7,7.1-15.8,15.8-15.8s15.8,7.1,15.8,15.8c0,8.6-7.1,15.7-15.8,15.7
			C98.7,33.4,91.6,26.4,91.6,17.7z M116.9,17.7c0-5.3-4.3-9.6-9.6-9.6c-5.3,0-9.6,4.3-9.6,9.6c0,5.3,4.3,9.6,9.6,9.6
			C112.6,27.3,116.9,23,116.9,17.7z"/>
		<path class="st0" d="M156.8,1.8v31.1h-6.1V19.6l-8.7,12.7h0l-8.7-12.7v13.2h-6.1V1.8h0.3l14.5,20l14.5-20H156.8z"/>
		<path class="st0" d="M162,2.5h6.1v30.3H162V2.5z"/>
	</g>
</g>
</svg>
